<svg width="193" height="16" viewBox="0 0 193 16" fill="none" xmlns="http://www.w3.org/2000/svg">
<path opacity="0.5" d="M0.292893 7.29289C-0.0976311 7.68342 -0.0976311 8.31658 0.292893 8.70711L6.65685 15.0711C7.04738 15.4616 7.68054 15.4616 8.07107 15.0711C8.46159 14.6805 8.46159 14.0474 8.07107 13.6569L2.41421 8L8.07107 2.34315C8.46159 1.95262 8.46159 1.31946 8.07107 0.928932C7.68054 0.538408 7.04738 0.538408 6.65685 0.928932L0.292893 7.29289ZM192.707 8.70711C193.098 8.31658 193.098 7.68342 192.707 7.29289L186.343 0.928932C185.953 0.538408 185.319 0.538408 184.929 0.928932C184.538 1.31946 184.538 1.95262 184.929 2.34315L190.586 8L184.929 13.6569C184.538 14.0474 184.538 14.6805 184.929 15.0711C185.319 15.4616 185.953 15.4616 186.343 15.0711L192.707 8.70711ZM1 9H192V7H1V9Z" fill="black"/>
</svg>
