<svg width="979" height="941" viewBox="0 0 979 941" fill="none" xmlns="http://www.w3.org/2000/svg">
<g clip-path="url(#clip0_729_411)">
<path d="M0 312.72C4.46 300.16 13.51 295.68 26.58 295.73C107.79 296 189 295.86 270.21 295.87C282.17 295.87 290.53 301.69 293.14 311.92C293.71 314.14 293.8 316.53 293.8 318.84C293.83 400.38 293.84 481.92 293.81 563.46C293.81 577.65 284.95 586.34 270.64 586.34C189.26 586.35 107.88 586.2 26.51 586.49C13.39 586.54 4.4 582.03 0 569.44L0 312.72Z" fill="black"/>
<path d="M468.45 498.88C487.38 501.83 505.6 504.68 523.81 507.52C547.47 511.21 571.2 514.51 594.77 518.72C613 521.98 625.62 532.92 632.47 550.17C648.47 590.49 664.36 630.84 680.29 671.19C686.52 686.96 692.94 702.64 698.93 718.5C711.77 752.54 687.67 787.61 651.95 787.13C631.8 786.86 614.16 774.52 606.32 754.81C589.68 712.96 573.21 671.05 556.61 629.18C554.37 623.53 553.17 616.19 548.95 612.95C544.65 609.64 537.21 610.37 531.13 609.43C485.12 602.29 439.08 595.29 393.09 588.03C359.11 582.66 338.65 562.07 330.95 529.37C327.28 513.78 326.26 497.49 324.85 481.45C319.35 418.51 330.06 357.81 350.95 298.61C360.92 270.34 377.76 247.83 405.89 235.31C420.56 228.78 435.93 226.72 451.74 229.9C468.82 233.33 479.78 244.41 487 259.59C495.55 277.57 497.26 296.45 493.79 317.2C491.77 314.79 490.27 313.34 489.16 311.64C482.18 300.93 474.65 290.51 468.51 279.32C457.4 259.1 434.56 250.96 414.51 260.96C394.66 270.86 386.85 294.67 397.2 315.11C415.44 351.12 440.81 381.45 471.86 407.08C474.63 409.37 475.54 411.28 474.96 414.99C470.94 441 468.12 467.13 468.44 493.5C468.46 495.15 468.44 496.79 468.44 498.9L468.45 498.88Z" fill="black"/>
<path d="M124.85 848.6H56.24C56.96 840.01 57.26 831.6 58.44 823.31C64.2 782.73 77.09 744.13 91.43 705.95C94.22 698.53 97.14 691.16 100.09 683.52C98.39 683.2 97.11 682.98 95.83 682.71C87.97 681.05 82.91 675.25 82.84 667.29C82.71 652.64 82.7 637.99 82.84 623.34C82.93 614.29 89.6 607.76 98.7 607.51C103.19 607.39 107.69 607.48 112.19 607.48C214.75 607.48 317.3 607.48 419.86 607.48C432.94 607.48 438.84 613.3 438.87 626.24C438.9 638.56 438.62 650.89 438.96 663.2C439.2 672.1 436.52 678.88 427.72 682.46C429.8 706.68 433.73 730.46 441.13 753.46C445.85 768.14 452.07 782.33 457.47 796.79C458.77 800.27 460.77 801.29 464.5 801.28C545.25 801.16 625.99 801.19 706.74 801.19H713V848.44H396.95C404.88 798.49 391.76 755.11 354.66 720.23C326.93 694.16 293.24 681.89 255.28 683.63C213.35 685.56 178.47 702.97 152.33 736.06C126.24 769.09 117.74 806.9 124.84 848.59L124.85 848.6Z" fill="black"/>
<path d="M731.63 821.68C731.79 756.16 785.2 703.17 850.88 703.38C916.01 703.58 969.01 757.11 968.85 822.51C968.69 887.74 915.2 940.74 849.82 940.48C784.36 940.22 731.48 887.06 731.63 821.67V821.68ZM897.1 822.19C897.18 796.45 876.39 775.45 850.65 775.26C824.76 775.07 803.51 796.04 803.36 821.94C803.21 847.45 824.24 868.71 849.87 868.94C875.66 869.17 897.03 848.02 897.1 822.18V822.19Z" fill="black"/>
<path d="M142.23 821.97C142.2 756.7 195.44 703.41 260.7 703.38C326.22 703.36 379.51 756.69 379.45 822.22C379.39 887.51 326.14 940.54 260.7 940.48C195.28 940.42 142.26 887.38 142.23 821.96V821.97ZM260.97 775.26C235.09 775.15 213.9 796.23 213.88 822.14C213.85 847.71 234.93 868.84 260.57 868.95C286.19 869.06 307.47 848.07 307.65 822.52C307.83 796.57 286.9 775.38 260.97 775.26Z" fill="black"/>
<path d="M604.19 88.6601C590.82 91.1201 577.75 92.8101 565.1 96.1201C556.89 98.2701 548.85 102.04 541.55 106.44C532.69 111.78 529.3 120.49 530.78 130.95C532.53 143.3 534.41 155.64 535.71 168.03C537.52 185.29 533.57 191.36 516.69 193.34C490.4 196.42 464.47 193.52 439.85 183.35C420.38 175.3 410.02 159.18 404.27 139.65C391.59 96.6101 399.13 58.1601 432.77 27.4501C462.66 0.160135 498.33 -6.76986 536.4 6.61014C574.34 19.9401 596.49 47.9501 604.17 87.3801C604.26 87.8501 604.18 88.3501 604.18 88.6701L604.19 88.6601Z" fill="black"/>
<path d="M594.07 462.88C609.35 463.45 624.26 464.18 639.19 464.47C644.47 464.57 649.97 464.34 655.03 462.99C671.1 458.72 680.93 448.14 684.44 431.8C684.68 430.69 684.97 429.6 686.35 428.17C687.66 431.07 689.22 433.88 690.25 436.88C699.32 463.11 708.34 489.34 717.22 515.63C718.32 518.9 720.07 520.75 723.22 522.19C768.05 542.66 802.26 573.91 821.56 620.04C824.7 627.55 827.54 635.2 830.07 642.93C831.28 646.61 833.16 647.48 836.87 647.54C873.83 648.1 907.79 657.79 936.98 681.38C951.9 693.44 963.98 707.99 973.64 724.51C975.87 728.33 977.62 732.61 978.65 736.91C980.14 743.1 974.35 748.64 968.15 747.23C966.81 746.92 965.58 745.34 964.68 744.07C940.91 710.24 908.57 689.85 867.63 684.77C823.16 679.25 784.62 693.06 752.35 724.19C751.39 725.11 750.49 726.09 749.53 727.02C749.3 727.24 748.97 727.37 748.09 727.91C718.31 640.94 688.57 554.11 658.65 466.73C649.21 470.27 640.09 473.68 630.97 477.1C627.39 478.44 623.86 479.93 620.22 481.1C607.02 485.32 594.57 476.56 594.07 462.89V462.88Z" fill="black"/>
<path d="M632.65 456.78C551.53 455.29 487.14 421.92 436.46 360.7C423.69 345.27 412.56 328.71 403.84 310.66C394.55 291.43 405.25 269.77 425.95 265.25C439.95 262.2 453.91 269.22 461.08 282.98C475.92 311.44 495.96 335.59 521.39 355.18C555.03 381.1 593.17 393.52 635.63 392.81C641.09 392.72 646.71 392.47 652.01 393.52C667.28 396.55 677.84 410.4 677.17 425.63C676.49 441.04 665.01 453.77 649.59 455.74C643.67 456.5 637.65 456.49 632.65 456.78Z" fill="black"/>
<path d="M815.32 453.19C812.97 466.22 810.83 479.3 808.15 492.27C807.36 496.08 805.27 499.68 803.38 503.17C799.03 511.23 792.3 514.41 783.06 513.37C756.58 510.4 734.96 491.34 729.32 465.57C723.72 439.97 735.25 413.94 758.33 400.34C767.24 395.09 776.92 392.48 787.29 392.17C794.52 391.95 799.21 395.77 802.76 401.39C809.61 412.24 811.66 424.56 813.07 437C813.67 442.28 813.76 447.62 814.08 452.94C814.5 453.03 814.91 453.11 815.33 453.2L815.32 453.19Z" fill="black"/>
<path d="M445.82 195.74C461.53 197.88 477.72 200.39 493.98 202.2C507.35 203.69 520.48 202.23 533.13 197.07C537.36 195.34 539.79 192.61 541.32 188.45C545.48 177.17 543.8 165.85 542.08 154.47C540.89 146.59 540.03 138.65 538.76 130.78C537.32 121.85 541.14 115.64 548.45 111.18C559.02 104.73 570.92 102.23 582.86 100.1C595.45 97.8601 595.48 98.0301 599.63 110.32C612.98 149.83 597.04 193.53 561.35 215.26C525.49 237.09 479.12 231.06 450.2 200.79C448.4 198.91 446.77 196.86 445.81 195.75L445.82 195.74Z" fill="black"/>
</g>
<defs>
<clipPath id="clip0_729_411">
<rect width="978.89" height="940.49" fill="white"/>
</clipPath>
</defs>
</svg>
