<svg width="83" height="83" viewBox="0 0 83 83" fill="none" xmlns="http://www.w3.org/2000/svg">
<path d="M74.7001 34.0301C74.1175 33.1142 73.6308 32.1407 73.2476 31.1251C72.9135 30.0815 72.7045 29.0018 72.6251 27.9089C72.5796 25.264 71.8145 22.6816 70.4118 20.4389C68.6965 18.4052 66.4613 16.8752 63.9447 16.0122C62.9177 15.6158 61.9329 15.1176 61.0051 14.5251C60.2003 13.8323 59.4595 13.0684 58.7918 12.2426C57.203 10.0855 55.0486 8.40986 52.5668 7.40094C50.0539 6.80716 47.4285 6.8907 44.9585 7.64302C42.7521 8.16152 40.4556 8.16152 38.2493 7.64302C35.7361 6.86561 33.0595 6.78196 30.5026 7.40094C27.9956 8.39885 25.8161 10.0754 24.2085 12.2426C23.5189 13.0715 22.7548 13.8355 21.926 14.5251C20.9982 15.1176 20.0134 15.6158 18.9864 16.0122C16.4572 16.8697 14.2095 18.4 12.4847 20.4389C11.1185 22.6921 10.3894 25.2738 10.3751 27.9089C10.2957 29.0018 10.0868 30.0815 9.75262 31.1251C9.36522 32.1169 8.87858 33.067 8.30012 33.9609C6.74086 36.1838 5.81993 38.7911 5.63721 41.5001C5.8323 44.1852 6.75266 46.7671 8.30012 48.9701C8.8919 49.8563 9.3793 50.8079 9.75262 51.8059C10.0535 52.877 10.2276 53.9797 10.2714 55.0914C10.3134 57.7367 11.0788 60.3201 12.4847 62.5614C14.2 64.595 16.4352 66.125 18.9518 66.988C19.9788 67.3844 20.9636 67.8826 21.8914 68.4751C22.7202 69.1647 23.4843 69.9287 24.1739 70.7576C25.752 72.925 27.9097 74.6032 30.3989 75.5993C31.3743 75.8962 32.3881 76.0476 33.4076 76.0489C34.9695 75.9991 36.5222 75.7905 38.0418 75.4264C40.2443 74.8758 42.5485 74.8758 44.751 75.4264C47.2702 76.1741 49.9419 76.2456 52.4976 75.6339C54.9868 74.6378 57.1445 72.9596 58.7226 70.7922C59.4122 69.9633 60.1763 69.1993 61.0051 68.5097C61.9329 67.9172 62.9177 67.419 63.9447 67.0226C66.4613 66.1596 68.6965 64.6296 70.4118 62.5959C71.8177 60.3547 72.5831 57.7713 72.6251 55.1259C72.6689 54.0143 72.843 52.9116 73.1439 51.8405C73.5313 50.8487 74.0179 49.8986 74.5964 49.0047C76.1867 46.8028 77.1435 44.2074 77.3631 41.5001C77.168 38.815 76.2476 36.2332 74.7001 34.0301ZM57.7889 37.0389L40.4972 54.3305C40.1757 54.6547 39.7932 54.9119 39.3718 55.0875C38.9504 55.2631 38.4983 55.3535 38.0418 55.3535C37.5853 55.3535 37.1332 55.2631 36.7118 55.0875C36.2904 54.9119 35.9079 54.6547 35.5864 54.3305L25.2114 43.9555C24.8889 43.6331 24.6331 43.2503 24.4586 42.829C24.2841 42.4077 24.1943 41.9561 24.1943 41.5001C24.1943 40.5791 24.5602 39.6959 25.2114 39.0447C25.8626 38.3935 26.7458 38.0276 27.6668 38.0276C28.5878 38.0276 29.471 38.3935 30.1222 39.0447L38.0418 46.9989L52.878 32.128C53.5293 31.4768 54.4125 31.111 55.3335 31.111C56.2544 31.111 57.1377 31.4768 57.7889 32.128C58.4401 32.7792 58.8059 33.6625 58.8059 34.5834C58.8059 35.5044 58.4401 36.3876 57.7889 37.0389Z" fill="#231F20"/>
</svg>
